<svg width="162" height="50" viewBox="0 0 162 50" fill="none" xmlns="http://www.w3.org/2000/svg">
<path d="M1.14288 25.1471C1.14288 38.6765 12 49.853 25.1429 49.853C38.2857 49.853 49.1429 38.6765 49.1429 25.1471C49.1429 11.6177 38.2857 0.588257 25.1429 0.588257C12 0.588257 1.14288 11.6177 1.14288 25.1471ZM34 36.6177C28.4286 33.0883 21.2857 32.2059 13 34.1177C11 34.4118 10.7143 31.4706 12.4286 31.1765C21.5715 28.9706 29.2857 30 35.5715 33.9706C37.1429 35 35.5715 37.5 34 36.6177ZM36.4286 30C30 25.8824 20.1429 24.7059 12.5715 27.0588C10.1429 27.7941 9.28574 23.9706 11.5715 23.3824C20.2857 20.7353 31 22.0588 38.4286 26.7647C40.4286 28.0883 38.4286 31.3236 36.4286 30ZM11.4286 19.5588C9.00003 20.4412 7.4286 16.1765 10.1429 15.1471C18.5715 12.5 32.8572 12.9412 41.7143 18.3824C44.1429 19.7059 41.8572 23.8236 39.2857 22.353C31.5715 17.6471 18.7143 17.2059 11.4286 19.5588ZM65.5714 32.9412C63.1429 32.9412 60.8572 32.0588 58.8572 30C58.7143 30 58.7143 30.1471 58.7143 30.1471L56.4286 32.9412C56.2857 33.0883 56.2857 33.2353 56.4286 33.3824C59 35.7353 62.1429 36.9118 65.5714 36.9118C70.4286 36.9118 73.4286 34.1177 73.4286 30C73.4286 26.4706 71.2857 24.5588 66.2857 23.2353C62.1429 22.2059 61.4286 21.4706 61.4286 20C61.4286 18.5294 62.8572 17.6471 64.7143 17.6471C66.5714 17.6471 68.2857 18.3824 70.2857 19.853C70.2857 19.853 70.4286 20 70.5714 20C70.7143 20 70.7143 19.853 70.7143 19.853L72.7143 16.9118C72.8572 16.7647 72.8572 16.7647 72.7143 16.6177C70.4286 14.7059 67.7143 13.6765 64.7143 13.6765C60.2857 13.6765 57.1429 16.4706 57.1429 20.4412C57.1429 24.7059 60 26.0294 64.5714 27.2059C68.5714 28.0883 69.1429 28.9706 69.1429 30.4412C69.1429 32.0588 67.7143 32.9412 65.5714 32.9412ZM79.1429 21.6177V19.7059C79.1429 19.5588 79 19.4118 78.8572 19.4118H75.1429C75 19.4118 74.8572 19.5588 74.8572 19.7059V41.3236C74.8572 41.4706 75 41.6177 75.1429 41.6177H78.8572C79 41.6177 79.1429 41.4706 79.1429 41.3236V34.5588C80.5714 36.1765 82.1429 36.9118 84.2857 36.9118C88.1429 36.9118 92 33.8236 92 27.9412C92 22.0588 88.1429 19.1177 84.2857 19.1177C82.1429 19.1177 80.5714 19.853 79.1429 21.6177ZM83.4286 33.0883C80.8572 33.0883 79 30.8824 79 27.9412C79 25 80.8572 22.9412 83.4286 22.9412C86 22.9412 87.7143 25 87.7143 27.9412C87.7143 30.8824 86 33.0883 83.4286 33.0883ZM93.1429 28.0883C93.1429 33.0883 97 36.9118 102 36.9118C107 36.9118 110.857 32.9412 110.857 27.9412C110.857 22.9412 107.143 19.1177 102.143 19.1177C97.1429 19.1177 93.1429 23.0883 93.1429 28.0883ZM97.4286 27.9412C97.4286 25 99.2857 22.9412 102 22.9412C104.714 22.9412 106.714 25.1471 106.714 28.0883C106.714 31.0294 104.857 33.0883 102.143 33.0883C99.4286 33.0883 97.4286 30.8824 97.4286 27.9412ZM117.429 19.4118V15.1471C117.429 15 117.429 14.853 117.286 14.853H113.571C113.429 14.853 113.286 15 113.286 15.1471V19.4118H111.429C111.286 19.4118 111.143 19.5588 111.143 19.7059V22.9412C111.143 23.0883 111.286 23.2353 111.429 23.2353H113.286V31.7647C113.286 35.1471 114.857 36.9118 118.143 36.9118C119.429 36.9118 120.714 36.6177 121.714 36.0294C121.857 36.0294 121.857 35.8824 121.857 35.7353V32.6471C121.857 32.5 121.857 32.353 121.714 32.353H121.429C120.714 32.7941 119.857 32.9412 119.143 32.9412C118 32.9412 117.429 32.353 117.429 31.1765V23.2353H121.714C121.857 23.2353 122 23.0883 122 22.9412V19.7059C122 19.5588 121.857 19.4118 121.714 19.4118H117.429ZM135.857 18.9706C135.857 17.353 136.429 16.7647 137.714 16.7647C138.429 16.7647 139.143 16.7647 139.857 17.0588H140C140 17.0588 140.143 16.9118 140.143 16.7647V13.6765C140.143 13.5294 140.143 13.3824 140 13.3824C139.286 13.0883 138.286 12.9412 136.857 12.9412C133.429 12.9412 131.714 15 131.714 18.6765V19.4118H129.857C129.714 19.4118 129.571 19.5588 129.571 19.7059V22.9412C129.571 23.0883 129.714 23.2353 129.857 23.2353H131.714V36.3236C131.714 36.4706 131.857 36.6177 132 36.6177H135.714C135.857 36.6177 135.857 36.4706 135.857 36.3236V23.2353H139.429L144.714 36.3236C144.143 37.6471 143.571 37.9412 142.714 37.9412C142 37.9412 141.286 37.7941 140.571 37.353H140.429L140.286 37.5L139 40.2941C139 40.4412 139 40.7353 139.143 40.7353C140.429 41.4706 141.571 41.7647 143 41.7647C145.714 41.7647 147.286 40.4412 148.571 36.9118L155 19.853V19.5588C155 19.4118 154.857 19.4118 154.714 19.4118H150.857C150.714 19.4118 150.714 19.5588 150.714 19.7059L146.714 31.1765L142.429 19.7059C142.429 19.5588 142.286 19.4118 142.143 19.4118H135.857V18.9706ZM124 19.4118C123.857 19.4118 123.714 19.5588 123.714 19.7059V36.3236C123.714 36.4706 123.857 36.6177 124 36.6177H127.714C127.857 36.6177 127.857 36.4706 127.857 36.3236V19.7059C127.857 19.5588 127.857 19.4118 127.714 19.4118H124ZM123.143 14.5588C123.143 16.0294 124.429 17.353 125.857 17.353C127.286 17.353 128.429 16.0294 128.429 14.5588C128.429 13.0883 127.286 11.9118 125.857 11.9118C124.429 11.9118 123.143 13.0883 123.143 14.5588ZM158.143 24.7059C159.571 24.7059 160.857 23.5294 160.857 22.0588C160.857 20.5883 159.571 19.4118 158.143 19.4118C156.714 19.4118 155.571 20.5883 155.571 22.0588C155.571 23.5294 156.714 24.7059 158.143 24.7059ZM158.143 19.7059C159.429 19.7059 160.571 20.7353 160.571 22.0588C160.571 23.3824 159.429 24.4118 158.143 24.4118C156.857 24.4118 155.857 23.3824 155.857 22.0588C155.857 20.7353 156.857 19.7059 158.143 19.7059ZM158.714 22.353C159.143 22.2059 159.429 21.9118 159.429 21.4706C159.429 20.8824 158.857 20.5883 158.286 20.5883H157.143V23.3824H157.714V22.5H158.286L158.857 23.3824H159.571L158.714 22.353ZM158.286 21.0294C158.571 21.0294 158.857 21.1765 158.857 21.4706C158.857 21.7647 158.571 21.9118 158.286 21.9118H157.714V21.0294H158.286Z" fill="white"/>
</svg>
